PathFileType	4	(X/Y/Z)	 s09c0201.trc
DataRate	CameraRate	NumFrames	NumMarkers	Units	OrigDataRate	OrigDataStartFrame	OrigNumFrames
200	200	4	50	mm	200	501	2000
Frame#	Time	racr			lacr			c7			jug			rlel			rdr			llel			ldr			s2			lic			ric			lasi			rasi			rpsi			lpsi			rgt			lgt			rth1			rth2			rth3			rth4			rlfc			rmfc			rsh1			rsh2			rsh3			rsh4			rlmal			rmmal			rcal			rtoe			rmt5			lth1			lth2			lth4			lth3			llfc			lmfc			llmal			lmmal			lcal			lmt5			lsh1			lsh2			lsh3			lsh4			ltoe			SBIKE			LBIKE			RBIKE			
		X1	Y1	Z1	X2	Y2	Z2	X3	Y3	Z3	X4	Y4	Z4	X5	Y5	Z5	X6	Y6	Z6	X7	Y7	Z7	X8	Y8	Z8	X9	Y9	Z9	X10	Y10	Z10	X11	Y11	Z11	X12	Y12	Z12	X13	Y13	Z13	X14	Y14	Z14	X15	Y15	Z15	X16	Y16	Z16	X17	Y17	Z17	X18	Y18	Z18	X19	Y19	Z19	X20	Y20	Z20	X21	Y21	Z21	X22	Y22	Z22	X23	Y23	Z23	X24	Y24	Z24	X25	Y25	Z25	X26	Y26	Z26	X27	Y27	Z27	X28	Y28	Z28	X29	Y29	Z29	X30	Y30	Z30	X31	Y31	Z31	X32	Y32	Z32	X33	Y33	Z33	X34	Y34	Z34	X35	Y35	Z35	X36	Y36	Z36	X37	Y37	Z37	X38	Y38	Z38	X39	Y39	Z39	X40	Y40	Z40	X41	Y41	Z41	X42	Y42	Z42	X43	Y43	Z43	X44	Y44	Z44	X45	Y45	Z45	X46	Y46	Z46	X47	Y47	Z47	X48	Y48	Z48	X49	Y49	Z49	X50	Y50	Z50	
501	2.5050	491.860610	1260.953264	-43.474871	576.429861	1223.573907	-351.023895	495.730952	1298.720860	-198.947423	485.400289	1158.614004	-196.461676	468.272095	1020.033455	49.389507	677.489732	910.834335	-41.829455	469.954137	1025.793214	-526.882351	679.557321	916.071159	-461.315386	22.640357	1130.623185	-289.447186	176.222236	1097.555091	-414.758020	143.748295	1144.697965	-127.195243	206.489116	1043.792243	-380.905232	186.642630	1087.152919	-131.956077	44.709875	1169.279970	-232.107840	59.260193	1160.036968	-340.295349	127.509714	1027.675985	-70.939762	130.950241	965.464909	-445.230445	252.240974	958.810947	-78.279846	337.521321	939.452925	-87.324944	398.701801	875.842409	-88.884565	351.466751	963.108992	-111.624769	473.659090	795.221501	-118.109489	458.811845	769.371975	-213.428436	425.443649	703.382644	-80.247012	412.928664	614.966225	-93.055608	360.416512	545.345350	-86.540816	434.263949	608.181880	-125.205311	324.874735	449.270176	-82.720289	320.253242	461.323351	-161.430761	249.110044	395.922155	-116.778494	507.433430	453.462503	-128.244587	434.254379	415.498710	-59.480504	221.909562	863.439098	-425.791951	289.589177	815.389965	-408.081943	316.197832	837.980254	-393.602591	326.984056	733.413731	-397.663256	355.645399	638.956501	-377.900877	353.606960	624.351337	-279.301917	116.769404	362.289704	-398.520665	137.168195	354.038253	-327.984160	42.682977	365.869329	-362.944116	151.409612	233.115266	-428.132764	293.632365	561.976264	-404.444632	256.149059	484.747576	-396.685920	182.722515	433.829657	-401.726683	272.971587	471.656293	-363.140724	234.688704	190.337389	-360.158306	-65.354648	853.152990	-240.053611	20.704069	84.790870	-442.053844	21.117236	84.037664	-43.824396	
502	2.5100	492.890237	1259.454948	-43.832358	576.736517	1222.074056	-351.131043	496.454727	1297.305334	-199.509617	485.540345	1156.988790	-196.680826	468.658551	1018.581197	49.255688	677.788208	911.058247	-40.961685	469.192482	1025.293463	-527.125280	678.582702	915.966807	-460.123745	22.467675	1131.888741	-288.553880	175.110012	1098.631146	-414.610635	144.227745	1144.811682	-126.714740	205.185697	1044.460443	-381.018325	186.772402	1087.067013	-131.796432	44.985389	1170.251190	-231.273041	59.822267	1160.863089	-338.868475	127.333884	1027.324951	-70.781249	129.822899	966.860106	-445.455541	251.202694	956.969592	-77.815030	336.239158	936.694689	-86.711031	396.599199	872.454543	-88.456316	350.509345	960.159809	-110.923551	470.945570	790.886063	-117.966795	456.365253	765.429288	-213.077008	424.160418	698.437416	-79.803157	412.739910	609.612668	-92.678067	361.368422	539.539746	-86.332986	434.219536	603.616977	-125.044555	326.950769	442.881992	-82.462078	322.192277	455.063261	-161.288181	251.620472	388.871185	-116.647691	509.380907	448.663279	-128.393514	436.829137	410.099022	-59.493163	221.821094	865.139618	-425.809975	289.770389	817.491624	-408.046357	316.302623	840.342739	-393.547820	327.658263	735.668862	-397.686927	356.402460	641.335951	-377.838740	353.785462	626.763349	-279.234052	114.099672	367.529711	-398.626695	134.664544	359.266686	-328.111004	39.966806	371.228350	-362.957443	148.524512	238.368823	-428.071218	293.675021	564.998092	-404.401397	255.166118	488.065486	-396.564886	181.129862	438.244055	-401.727282	271.123790	474.216001	-361.799975	231.762671	195.556146	-360.098348	-65.366789	853.135535	-240.066589	20.703902	84.773564	-442.055610	21.114415	84.052193	-43.831587	
503	2.5150	494.033611	1257.938191	-44.256705	577.016610	1220.637804	-351.346563	497.183142	1295.922923	-200.414661	485.742709	1155.415912	-197.060055	468.163440	1017.971425	49.885804	678.080942	911.281093	-40.110228	468.508635	1024.658810	-527.444819	677.550372	915.916038	-458.905528	22.254895	1133.146926	-287.536717	173.851710	1099.434245	-414.322857	144.741460	1144.868189	-126.129882	203.776980	1045.322581	-381.377975	186.965445	1086.973407	-131.583083	45.284341	1170.877185	-230.174787	59.051838	1162.603524	-338.621344	127.229435	1026.800369	-70.600182	128.758111	968.275207	-445.619747	250.059241	954.838093	-77.389634	334.370834	933.877782	-85.664284	394.417337	868.609312	-87.941264	349.571147	956.982348	-110.251881	468.212731	786.742248	-117.583482	453.763042	761.218837	-212.727815	422.764439	693.358436	-79.353561	412.594305	604.618544	-92.431092	362.212307	533.608718	-86.114048	433.991694	598.807720	-124.904654	328.943290	436.370901	-82.273633	323.922270	448.678541	-161.040723	254.108333	381.719073	-116.591929	511.380425	443.633970	-128.346244	438.314940	404.992485	-58.753828	221.660038	866.708723	-425.792835	289.831098	819.584895	-408.148164	316.251021	842.589563	-393.640197	328.210022	738.017225	-397.762288	357.221647	643.731270	-377.795960	354.043183	629.329160	-279.238542	111.637642	372.921985	-398.736117	132.479046	364.667485	-328.207261	37.517046	376.827035	-363.017133	145.847240	243.800840	-428.001567	293.790998	568.073558	-404.431414	254.311305	491.788579	-396.466887	179.651471	442.749975	-401.744517	269.919745	477.609637	-361.547749	229.032506	200.773157	-360.057743	-65.364713	853.128386	-240.058354	20.710318	84.777306	-442.047459	21.114986	84.046823	-43.826158	
504	2.5200	495.323629	1256.393595	-44.756847	577.314294	1219.244749	-351.694720	497.838233	1294.556212	-200.798795	486.073650	1153.911491	-197.602216	468.218494	1016.942831	50.150648	678.301059	911.413746	-39.219931	467.862010	1024.059223	-527.766661	676.502090	915.906082	-457.775862	21.862709	1134.475154	-286.330153	172.593296	1100.512211	-413.959142	145.342777	1144.801611	-125.499334	202.410824	1045.871714	-381.361289	187.196079	1086.796069	-131.417740	45.560247	1171.328889	-228.844616	59.623165	1163.114512	-336.927748	127.152499	1026.047104	-70.369125	127.720246	969.735611	-445.758668	249.054870	952.532934	-76.847525	333.057641	930.507173	-85.026064	392.172512	864.518543	-87.552002	348.866207	953.541079	-109.779624	465.182408	782.225291	-117.397005	451.092435	756.858065	-212.323830	421.100471	688.272370	-78.971676	412.267241	599.409826	-92.359899	362.881030	527.674422	-85.923864	433.646537	593.911968	-124.780585	330.727121	429.759790	-82.101826	325.606080	442.163064	-160.904751	256.412574	374.510164	-116.494172	512.936832	438.439361	-128.445008	441.443330	398.600919	-59.748706	221.346337	868.446969	-425.866195	289.814216	821.702213	-408.327874	316.171067	844.822031	-393.911501	328.595936	740.311392	-397.915885	357.972207	646.234588	-377.984117	353.553287	632.549115	-279.267006	109.373043	378.475323	-398.785110	130.069023	370.232840	-328.204690	35.109365	382.449913	-362.940094	143.322116	249.339759	-427.992908	293.979801	571.192778	-404.437875	253.489008	495.249937	-396.280741	178.282805	447.297152	-401.807185	268.946166	481.193606	-361.502875	226.476986	206.231369	-359.989959	-65.362168	853.120074	-240.076175	20.715241	84.777581	-442.034748	21.121064	84.041954	-43.834152	
